<?xml version="1.0" standalone="no"?><!DOCTYPE svg PUBLIC "-//W3C//DTD SVG 1.1//EN" "http://www.w3.org/Graphics/SVG/1.1/DTD/svg11.dtd"><svg height="1091" node-id="1" sillyvg="true" template-height="1091" template-width="1199" version="1.1" viewBox="0 0 1199 1091" width="1199" xmlns="http://www.w3.org/2000/svg" xmlns:xlink="http://www.w3.org/1999/xlink"><defs node-id="35"></defs><g node-id="60"><path d="M 721.60 81.20 L 759.90 62.00 L 785.20 50.20 L 814.00 37.70 L 829.10 31.60 L 860.10 20.10 L 875.20 15.20 L 895.10 9.70 L 913.70 5.80 L 922.30 4.60 L 930.20 3.90 L 941.80 3.90 L 951.20 5.30 L 955.70 6.60 L 959.50 8.40 L 962.80 10.50 L 965.60 13.00 L 968.50 16.70 L 970.80 20.40 L 972.50 24.40 L 973.70 28.50 L 974.30 32.80 L 974.60 37.30 L 974.40 42.10 L 973.70 47.20 L 972.30 53.90 L 970.40 61.10 L 967.80 68.90 L 963.40 80.50 L 946.60 119.70 L 941.00 133.70 L 935.60 148.30 L 932.40 158.20 L 929.60 168.30 L 927.20 178.70 L 924.60 194.40 L 923.40 210.50 L 923.40 218.60 L 923.90 226.80 L 924.90 235.10 L 926.40 243.60 L 905.10 237.80 L 882.20 230.40 L 869.00 225.60 L 844.50 215.50 L 824.00 205.80 L 813.80 200.40 L 803.70 194.60 L 793.70 188.40 L 784.00 181.70 L 774.70 174.70 L 765.80 167.30 L 759.50 161.40 L 753.50 155.30 L 748.00 149.00 L 742.90 142.50 L 738.20 135.70 L 734.00 128.70 L 730.40 121.40 L 727.30 113.90 L 725.30 107.70 L 723.70 101.40 L 722.60 94.90 L 721.80 88.10 L 721.60 81.20 Z" fill="#a3d9ff" fill-rule="nonzero" group-id="1" id="Shape" node-id="9" stroke="none" target-height="239.70001" target-width="253" target-x="721.6" target-y="3.9"></path><path d="M 8.30 481.00 L 6.10 475.30 L 3.60 466.00 L 2.20 455.80 L 2.10 446.60 L 2.50 441.90 L 3.40 437.00 L 4.70 431.90 L 6.50 427.00 L 8.90 422.10 L 12.00 417.10 L 17.70 410.00 L 21.30 406.60 L 29.70 400.00 L 34.50 397.00 L 46.40 391.10 L 52.60 388.70 L 67.60 384.20 L 76.50 382.30 L 73.80 371.60 L 72.10 362.90 L 70.60 353.20 L 69.10 340.90 L 67.90 323.00 L 67.90 302.20 L 68.50 291.10 L 69.50 279.30 L 71.00 267.60 L 73.20 255.40 L 76.10 242.60 L 78.60 233.20 L 81.60 223.60 L 85.10 213.90 L 89.10 203.90 L 93.40 194.20 L 98.40 184.50 L 103.90 174.60 L 110.10 164.60 L 116.60 155.10 L 123.90 145.50 L 131.90 135.90 L 140.70 126.20 L 147.90 118.90 L 155.70 111.70 L 164.00 104.40 L 173.00 97.20 L 182.50 90.10 L 192.10 83.40 L 202.30 76.90 L 213.20 70.40 L 224.80 64.00 L 237.20 57.60 L 249.40 51.90 L 262.30 46.30 L 276.10 40.80 L 290.80 35.50 L 306.30 30.40 L 321.40 25.80 L 337.50 21.40 L 354.40 17.30 L 372.40 13.40 L 391.40 9.70 L 410.00 6.70 L 428.30 4.30 L 446.30 2.60 L 464.20 1.60 L 481.80 1.10 L 499.30 1.30 L 516.90 2.10 L 534.30 3.40 L 551.50 5.30 L 568.40 7.80 L 585.20 10.90 L 601.90 14.50 L 618.40 18.70 L 634.80 23.30 L 650.90 28.50 L 666.90 34.20 L 682.70 40.50 L 698.30 47.20 L 713.70 54.40 L 728.90 62.10 L 743.80 70.20 L 758.60 78.80 L 773.20 87.90 L 787.60 97.50 L 801.70 107.40 L 815.60 117.70 L 829.30 128.50 L 842.70 139.60 L 855.90 151.20 L 869.00 163.30 L 884.10 178.00 L 898.90 193.40 L 913.40 209.20 L 927.50 225.60 L 941.30 242.50 L 954.60 259.80 L 967.40 277.40 L 979.90 295.60 L 992.00 314.20 L 1003.80 333.30 L 1014.90 352.60 L 1025.70 372.20 L 1036.00 392.30 L 1045.90 412.70 L 1055.30 433.50 L 1064.30 454.40 L 1072.70 475.70 L 1080.70 497.20 L 1088.20 519.00 L 1095.20 541.10 L 1101.60 563.30 L 1107.60 585.70 L 1113.00 608.30 L 1117.90 631.10 L 1122.20 654.20 L 1126.10 677.20 L 1129.30 700.40 L 1132.00 723.70 L 1134.10 747.10 L 1135.70 770.60 L 1136.60 794.10 L 1137.00 817.60 L 1136.80 841.20 L 1136.00 864.80 L 1134.50 888.40 L 1021.90 933.00 L 1021.30 919.30 L 1020.40 908.10 L 1019.00 895.60 L 1014.90 869.00 L 1009.70 843.70 L 1006.40 830.60 L 1002.60 816.60 L 998.00 801.60 L 993.00 786.80 L 987.20 771.40 L 980.60 755.40 L 975.30 743.60 L 963.20 719.40 L 956.40 707.00 L 949.20 694.90 L 941.40 682.80 L 933.10 670.70 L 924.10 658.40 L 914.80 646.60 L 904.80 634.90 L 894.10 623.20 L 882.60 611.60 L 873.30 602.70 L 863.50 593.90 L 853.10 585.30 L 842.30 576.70 L 830.90 568.30 L 819.40 560.40 L 807.40 552.70 L 794.70 545.20 L 781.50 537.80 L 767.60 530.70 L 753.80 524.10 L 739.40 517.80 L 724.20 511.80 L 708.40 506.00 L 691.80 500.60 L 675.50 495.70 L 658.40 491.20 L 640.50 487.00 L 621.80 483.30 L 602.20 479.90 L 583.10 477.10 L 563.10 474.70 L 542.30 472.80 L 520.50 471.40 L 497.70 470.50 L 475.60 470.20 L 452.60 470.40 L 428.50 471.10 L 403.40 472.50 L 377.20 474.50 L 351.80 477.00 L 325.40 480.10 L 297.90 483.90 L 269.30 488.40 L 239.50 493.70 L 221.20 499.10 L 189.30 507.30 L 162.20 512.90 L 147.60 515.50 L 132.80 517.60 L 117.80 519.20 L 97.90 520.30 L 78.60 520.10 L 69.50 519.30 L 60.80 518.20 L 48.20 515.40 L 37.10 511.50 L 31.90 509.00 L 27.20 506.10 L 22.90 502.90 L 19.00 499.40 L 16.30 496.30 L 13.80 492.90 L 11.70 489.30 L 9.80 485.30 L 8.30 481.00 Z" fill="#a3d9ff" fill-rule="nonzero" group-id="1" id="Shape" node-id="10" stroke="none" target-height="931.9" target-width="1134.9" target-x="2.1" target-y="1.1"></path><g node-id="61"><path d="M 923.50 218.70 L 923.50 210.30 L 923.90 201.90 L 924.70 193.70 L 925.90 185.60 L 928.10 174.80 L 930.70 164.20 L 933.80 153.90 L 941.00 133.70 L 962.30 83.10 L 967.00 71.00 L 969.80 63.00 L 972.00 55.50 L 973.50 48.50 L 974.30 43.20 L 974.60 38.20 L 974.40 33.50 L 973.80 29.10 L 972.70 24.80 L 970.90 20.70 L 968.60 16.80 L 965.60 13.00 L 963.00 10.70 L 959.90 8.60 L 956.40 7.00 L 952.40 5.60 L 943.80 4.10 L 938.90 3.70 L 926.20 4.20 L 918.40 5.10 L 909.90 6.50 L 892.60 10.30 L 869.40 17.10 L 855.00 21.90 L 826.20 32.70 L 798.40 44.40 L 811.40 36.90 L 825.40 29.50 L 842.40 21.20 L 860.90 13.30 L 870.30 9.90 L 879.40 7.10 L 885.50 5.50 L 896.40 3.70 L 901.70 3.40 L 906.30 3.70 L 910.40 4.50 L 913.30 5.50 L 915.80 6.80 L 918.00 8.50 L 919.90 10.60 L 921.30 12.90 L 922.40 15.80 L 923.10 19.20 L 923.40 23.30 L 922.40 32.40 L 921.10 38.30 L 918.70 47.30 L 915.30 57.80 L 893.60 117.00 L 885.50 141.20 L 880.40 159.90 L 878.20 173.10 L 864.60 159.90 L 851.00 147.30 L 837.30 135.20 L 823.50 123.80 L 809.70 112.90 L 795.80 102.60 L 781.90 92.80 L 767.90 83.60 L 753.30 74.60 L 738.60 66.10 L 723.90 58.20 L 709.10 50.80 L 694.20 43.90 L 679.30 37.60 L 664.30 31.80 L 649.10 26.40 L 633.70 21.60 L 618.30 17.20 L 602.70 13.40 L 587.00 10.00 L 571.30 7.20 L 555.40 4.90 L 539.40 3.10 L 523.30 1.80 L 507.20 1.00 L 491.10 0.70 L 474.80 0.90 L 458.50 1.60 L 441.90 2.90 L 425.30 4.60 L 408.40 6.90 L 391.40 9.70 L 372.40 13.40 L 354.40 17.30 L 337.50 21.40 L 321.40 25.80 L 306.30 30.40 L 290.80 35.50 L 276.10 40.80 L 262.30 46.30 L 249.40 51.90 L 237.20 57.60 L 224.80 64.00 L 213.20 70.40 L 202.30 76.90 L 192.10 83.40 L 182.50 90.10 L 173.00 97.20 L 164.00 104.40 L 155.70 111.70 L 147.90 118.90 L 140.70 126.20 L 131.90 135.90 L 123.90 145.50 L 116.60 155.10 L 110.10 164.60 L 103.90 174.60 L 98.40 184.50 L 93.40 194.30 L 89.10 203.90 L 85.10 213.90 L 81.60 223.70 L 78.60 233.20 L 76.10 242.60 L 73.20 255.40 L 71.10 267.60 L 69.50 279.30 L 68.50 291.10 L 67.90 302.20 L 68.00 323.00 L 69.10 340.90 L 70.60 353.20 L 73.80 371.60 L 76.50 382.30 L 67.60 384.30 L 52.70 388.70 L 40.10 394.00 L 29.70 400.00 L 21.30 406.60 L 14.60 413.50 L 12.00 417.10 L 8.90 422.10 L 6.50 427.00 L 4.70 431.90 L 3.40 437.00 L 2.50 441.90 L 2.10 446.60 L 2.20 455.80 L 3.60 466.00 L 6.10 475.30 L 9.80 485.30 L 11.70 489.30 L 13.80 492.90 L 16.30 496.30 L 19.00 499.40 L 22.90 503.00 L 27.20 506.10 L 31.90 509.00 L 37.10 511.50 L 48.20 515.40 L 60.80 518.20 L 69.50 519.30 L 78.60 520.10 L 88.20 520.40 L 107.70 519.90 L 132.80 517.60 L 147.60 515.50 L 162.20 512.90 L 176.00 510.20 L 201.10 504.50 L 221.20 499.10 L 239.50 493.70 L 268.50 488.50 L 296.40 484.10 L 323.20 480.40 L 348.90 477.30 L 373.70 474.80 L 399.20 472.80 L 423.80 471.40 L 447.30 470.50 L 469.90 470.20 L 491.60 470.40 L 513.90 471.10 L 535.30 472.30 L 555.80 474.00 L 575.40 476.10 L 594.30 478.60 L 613.50 481.80 L 632.00 485.20 L 649.70 489.10 L 666.60 493.30 L 682.70 497.80 L 699.20 502.90 L 714.90 508.30 L 730.00 514.00 L 744.30 519.90 L 758.10 526.10 L 771.90 532.80 L 785.20 539.80 L 797.80 546.90 L 809.90 554.20 L 821.40 561.70 L 832.80 569.70 L 843.80 577.90 L 854.20 586.10 L 864.10 594.50 L 873.60 603.00 L 885.20 614.10 L 896.10 625.30 L 906.30 636.60 L 915.90 648.00 L 925.10 659.80 L 933.80 671.60 L 941.80 683.30 L 949.30 695.00 L 963.00 719.00 L 974.80 742.30 L 981.80 758.10 L 988.00 773.30 L 993.50 788.10 L 998.50 803.00 L 1002.80 817.10 L 1006.40 830.50 L 1009.70 844.00 L 1014.70 867.90 L 1011.30 848.90 L 1006.80 827.20 L 999.40 796.90 L 994.80 780.30 L 989.70 763.90 L 984.00 746.80 L 977.60 729.10 L 966.90 702.80 L 960.80 689.30 L 947.50 662.30 L 940.30 648.90 L 932.50 635.40 L 924.10 621.90 L 915.50 608.70 L 906.30 595.70 L 896.50 582.70 L 886.10 569.80 L 875.40 557.40 L 864.00 545.10 L 852.00 533.10 L 839.40 521.40 L 829.00 512.40 L 818.20 503.60 L 806.90 495.00 L 795.20 486.70 L 783.00 478.60 L 770.60 470.90 L 757.80 463.60 L 744.40 456.60 L 730.50 449.80 L 716.00 443.40 L 701.50 437.50 L 686.50 432.00 L 670.80 426.90 L 654.50 422.10 L 637.60 417.80 L 620.90 414.00 L 603.40 410.80 L 585.30 407.90 L 566.50 405.60 L 546.80 403.70 L 527.60 402.50 L 507.70 401.80 L 486.90 401.70 L 465.30 402.20 L 442.80 403.30 L 421.00 404.90 L 398.30 407.20 L 374.70 410.20 L 350.10 413.90 L 324.60 418.30 L 288.00 428.50 L 264.30 434.40 L 224.30 443.40 L 197.10 448.40 L 184.20 450.30 L 171.70 451.80 L 160.60 452.60 L 153.20 452.80 L 141.40 452.20 L 137.20 451.50 L 130.90 449.50 L 128.60 448.30 L 126.50 446.70 L 125.10 444.90 L 124.20 442.80 L 123.90 440.40 L 121.60 434.30 L 120.30 429.50 L 119.30 424.30 L 118.60 418.00 L 118.40 413.70 L 119.30 404.30 L 120.30 399.50 L 122.00 394.70 L 124.20 389.70 L 128.80 382.70 L 131.80 379.20 L 135.30 375.70 L 139.00 372.60 L 143.40 369.50 L 148.50 366.50 L 154.30 363.50 L 160.10 361.10 L 166.80 358.80 L 174.40 356.70 L 183.10 354.70 L 179.50 347.10 L 177.10 340.90 L 181.10 345.70 L 185.60 350.20 L 190.80 354.40 L 196.60 358.40 L 202.70 361.90 L 209.30 365.10 L 216.50 368.10 L 224.20 370.90 L 234.70 373.90 L 246.00 376.60 L 258.10 378.90 L 270.30 380.70 L 283.00 382.20 L 309.70 384.00 L 337.10 384.50 L 357.80 384.30 L 378.50 383.50 L 399.00 382.20 L 437.90 378.90 L 472.80 374.80 L 513.00 369.00 L 535.40 365.20 L 553.50 366.00 L 570.90 367.40 L 587.80 369.30 L 604.10 371.70 L 619.80 374.60 L 635.80 378.00 L 651.20 381.90 L 666.10 386.20 L 680.50 390.90 L 694.40 396.00 L 708.30 401.60 L 721.80 407.60 L 734.80 413.80 L 747.40 420.40 L 759.60 427.30 L 771.70 434.60 L 783.40 442.20 L 794.60 450.00 L 805.50 458.00 L 816.00 466.20 L 828.90 477.00 L 841.20 487.90 L 853.00 499.10 L 864.20 510.50 L 875.10 522.20 L 885.50 534.10 L 895.30 546.00 L 904.60 557.90 L 922.30 582.30 L 937.90 606.20 L 947.70 622.40 L 956.60 638.10 L 964.60 653.30 L 972.30 668.60 L 985.20 696.70 L 993.60 716.90 L 1000.30 734.40 L 1010.40 764.10 L 1014.00 776.00 L 1017.80 790.50 L 1021.40 863.50 L 1022.10 892.00 L 1022.40 894.10 L 1023.10 895.90 L 1024.20 897.60 L 1025.90 899.00 L 1028.40 900.50 L 1031.70 901.70 L 1035.80 902.70 L 1044.80 903.70 L 1058.40 903.60 L 1076.30 901.90 L 1094.10 899.30 L 1116.70 895.10 L 1130.40 892.00 L 1132.00 879.80 L 1133.90 858.20 L 1134.70 843.30 L 1135.00 827.40 L 1134.60 795.50 L 1132.80 766.10 L 1134.30 783.80 L 1135.50 801.50 L 1136.20 819.20 L 1136.40 837.00 L 1136.20 854.80 L 1135.50 872.50 L 1136.70 847.60 L 1137.20 822.70 L 1137.00 797.90 L 1136.30 773.30 L 1135.00 748.80 L 1133.00 724.20 L 1130.40 699.80 L 1127.30 675.70 L 1123.60 651.80 L 1119.30 628.00 L 1114.40 604.30 L 1109.00 580.90 L 1103.00 557.80 L 1096.50 535.00 L 1089.50 512.50 L 1081.80 490.10 L 1073.70 468.00 L 1065.00 446.40 L 1055.90 425.20 L 1046.30 404.30 L 1036.10 383.60 L 1025.40 363.40 L 1014.30 343.70 L 1002.70 324.50 L 990.70 305.70 L 980.20 290.20 L 969.40 275.10 L 958.40 260.40 L 947.00 246.20 L 935.40 232.20 L 923.50 218.70 Z M 181.70 259.10 L 184.70 253.50 Z M 368.30 26.30 L 382.50 22.30 L 396.60 18.90 L 410.60 16.00 L 424.50 13.70 L 438.20 11.90 L 451.90 10.60 L 465.70 9.90 L 479.50 9.60 L 493.10 9.80 L 506.70 10.40 L 520.10 11.60 L 533.50 13.20 L 549.60 15.80 L 565.50 18.90 L 581.30 22.60 L 596.90 27.00 L 612.50 31.90 L 627.90 37.40 L 643.20 43.50 L 658.30 50.00 L 673.30 57.10 L 688.20 64.70 L 702.90 72.70 L 717.30 81.20 L 731.70 90.10 L 745.90 99.50 L 759.90 109.30 L 777.10 122.10 L 794.00 135.40 L 810.60 149.30 L 827.00 163.70 L 843.00 178.60 L 858.60 193.90 L 873.80 209.60 L 888.80 225.70 L 903.30 242.20 L 917.50 259.00 L 931.20 276.00 L 944.50 293.20 L 957.50 310.80 L 970.10 328.50 L 982.10 346.30 L 993.70 364.10 L 1005.00 382.30 L 1015.70 400.30 L 1025.90 418.30 L 1035.50 436.20 L 1044.90 454.40 L 1053.60 472.40 L 1061.80 490.00 L 1069.40 507.40 L 1076.60 525.20 L 1083.10 542.80 L 1088.90 560.20 L 1094.30 577.80 L 1099.00 594.80 L 1103.00 611.40 L 1106.60 628.10 L 1109.50 644.00 L 1111.80 659.00 L 1113.80 674.20 L 1115.10 688.10 L 1115.80 700.90 L 1116.20 713.80 L 1116.00 725.20 L 1115.30 735.10 L 1114.40 742.80 L 1112.00 754.90 L 1110.50 759.60 L 1108.90 763.50 L 1107.20 766.60 L 1105.50 769.00 L 1103.70 770.90 L 1101.90 772.20 L 1099.80 773.10 L 1097.60 773.50 L 1095.20 773.30 L 1092.60 772.50 L 1089.60 771.00 L 1086.40 768.60 L 1082.90 765.20 L 1078.70 760.40 L 1074.10 753.80 L 1070.10 747.50 L 1065.70 739.70 L 1060.90 730.10 L 1055.60 718.70 L 1049.20 703.70 L 1042.20 685.40 L 1030.30 651.70 L 1025.60 639.60 L 1020.20 627.30 L 1014.10 614.80 L 1007.60 602.70 L 1000.60 590.40 L 993.00 578.10 L 984.80 565.60 L 967.30 541.30 L 947.70 516.90 L 934.00 501.00 L 919.50 485.30 L 904.30 469.60 L 888.60 454.40 L 872.40 439.40 L 855.60 424.70 L 838.40 410.40 L 820.90 396.50 L 803.00 383.00 L 786.90 371.50 L 770.50 360.50 L 753.90 349.90 L 737.10 339.70 L 720.00 330.00 L 702.70 320.80 L 685.30 312.10 L 667.70 303.90 L 649.90 296.10 L 632.00 288.90 L 614.20 282.20 L 596.20 276.00 L 578.10 270.40 L 560.10 265.30 L 542.10 260.80 L 524.20 256.90 L 506.10 253.50 L 488.20 250.80 L 470.50 248.70 L 452.90 247.20 L 438.70 246.40 L 424.80 246.00 L 411.00 246.10 L 397.30 246.60 L 383.90 247.40 L 370.40 248.80 L 357.10 250.50 L 344.00 252.70 L 331.20 255.40 L 311.90 260.10 L 271.60 271.60 L 247.30 277.40 L 234.90 279.70 L 218.40 281.70 L 210.50 282.10 L 202.60 282.10 L 195.20 281.50 L 188.20 280.50 L 183.00 279.20 L 178.20 277.60 L 173.70 275.60 L 169.60 273.30 L 165.70 270.50 L 162.30 267.20 L 159.10 263.40 L 156.40 259.10 L 155.20 250.00 L 154.60 242.70 L 154.40 234.60 L 155.10 217.40 L 157.10 201.30 L 158.70 192.90 L 160.90 184.10 L 163.60 174.80 L 166.80 165.60 L 170.80 156.20 L 175.60 146.40 L 179.50 139.30 L 183.90 132.10 L 188.90 124.90 L 194.40 117.50 L 200.20 110.60 L 206.70 103.60 L 213.80 96.60 L 221.70 89.60 L 229.70 83.20 L 238.50 76.80 L 248.20 70.40 L 258.70 64.20 L 269.30 58.50 L 280.90 53.10 L 293.50 47.70 L 307.10 42.60 L 317.80 39.00 L 341.50 32.30 L 368.30 26.30 Z" fill="#61a7d9" fill-opacity="0.36" fill-rule="nonzero" group-id="1,2" id="Shape" node-id="12" stroke="none" target-height="903" target-width="1135.1" target-x="2.1" target-y="0.7"></path></g><path d="M 1018.80 899.00 L 1019.80 880.00 L 1020.10 861.50 L 1019.90 843.50 L 1019.10 825.90 L 1017.80 808.80 L 1015.90 792.10 L 1013.40 775.10 L 1010.50 758.60 L 1007.00 742.40 L 1003.00 726.70 L 998.60 711.30 L 993.60 696.30 L 988.10 681.40 L 982.20 666.70 L 975.80 652.50 L 968.90 638.60 L 961.70 625.00 L 953.90 611.80 L 945.80 598.80 L 937.20 586.10 L 928.20 573.70 L 918.80 561.70 L 909.10 549.90 L 898.90 538.50 L 888.40 527.40 L 877.50 516.60 L 866.30 506.10 L 854.70 495.90 L 842.80 486.00 L 830.40 476.40 L 815.40 465.40 L 799.90 454.80 L 784.00 444.60 L 767.50 434.80 L 750.70 425.50 L 733.60 416.80 L 716.20 408.40 L 698.30 400.50 L 680.10 393.00 L 661.50 385.90 L 642.80 379.40 L 623.80 373.30 L 604.60 367.70 L 585.00 362.40 L 565.00 357.70 L 545.10 353.40 L 525.00 349.50 L 504.60 346.10 L 484.10 343.20 L 463.30 340.70 L 442.50 338.60 L 421.60 337.10 L 400.60 335.90 L 379.40 335.20 L 358.20 335.00 L 315.70 335.60 L 268.40 337.50 L 243.70 339.20 L 218.60 341.40 L 185.20 345.40 L 152.30 350.50 L 136.50 353.60 L 121.20 357.10 L 106.10 361.00 L 91.80 365.20 L 78.50 369.80 L 68.50 373.70 L 59.30 377.80 L 50.70 382.10 L 42.80 386.50 L 36.60 390.50 L 30.80 394.60 L 25.60 398.80 L 20.90 403.20 L 16.70 407.70 L 12.80 412.60 L 9.40 417.60 L 6.60 422.80 L 4.30 428.20 L 2.50 433.80 L 1.40 439.50 L 0.80 445.50 L 0.70 451.80 L 1.40 458.40 L 3.70 471.30 L 4.90 476.00 L 9.80 490.10 L 11.70 494.10 L 13.80 497.70 L 16.30 501.10 L 19.00 504.20 L 22.90 507.70 L 27.20 510.90 L 31.90 513.80 L 37.10 516.30 L 48.20 520.20 L 54.30 521.70 L 60.80 523.00 L 69.50 524.10 L 78.60 524.90 L 88.20 525.20 L 107.70 524.70 L 132.80 522.30 L 147.60 520.20 L 162.20 517.70 L 189.30 512.10 L 221.20 503.90 L 239.50 498.50 L 268.20 493.40 L 295.80 489.00 L 322.30 485.30 L 347.80 482.20 L 372.30 479.70 L 397.60 477.70 L 421.90 476.20 L 445.30 475.30 L 467.70 475.00 L 489.20 475.10 L 511.30 475.80 L 532.60 476.90 L 552.90 478.50 L 572.40 480.60 L 591.10 483.00 L 610.30 486.00 L 628.60 489.40 L 646.20 493.10 L 663.00 497.20 L 679.20 501.60 L 695.50 506.50 L 711.20 511.80 L 726.20 517.30 L 740.60 523.10 L 754.30 529.20 L 768.10 535.70 L 781.30 542.50 L 794.00 549.50 L 806.00 556.70 L 817.60 564.00 L 829.10 571.90 L 840.00 579.80 L 850.50 587.90 L 860.50 596.10 L 870.00 604.50 L 881.70 615.40 L 892.60 626.40 L 902.90 637.50 L 912.60 648.80 L 921.90 660.40 L 930.60 672.00 L 938.80 683.60 L 946.30 695.20 L 960.40 718.90 L 972.30 742.00 L 979.50 757.70 L 985.90 772.80 L 991.50 787.50 L 996.70 802.40 L 1001.20 816.60 L 1005.00 830.00 L 1008.50 843.60 L 1013.80 867.70 L 1016.80 884.80 L 1018.80 899.00 Z" fill="#f0f0ff" fill-rule="nonzero" group-id="1" id="Shape" node-id="13" stroke="none" target-height="564" target-width="1019.39996" target-x="0.7" target-y="335"></path><g node-id="62"><path d="M 1018.00 812.10 L 1017.10 839.40 L 1014.70 867.90 L 1011.30 838.20 L 1008.60 821.00 L 1005.00 801.40 L 1002.10 788.10 L 994.70 759.20 L 990.20 744.50 L 985.10 729.20 L 979.20 713.30 L 969.30 689.70 L 963.70 677.60 L 957.50 665.40 L 951.00 653.40 L 944.00 641.40 L 936.50 629.40 L 928.30 617.20 L 919.80 605.50 L 910.70 593.80 L 901.00 582.10 L 890.60 570.50 L 882.00 561.60 L 863.50 544.10 L 843.10 527.00 L 832.50 518.90 L 821.50 511.00 L 809.80 503.30 L 797.60 495.70 L 784.80 488.30 L 772.00 481.40 L 758.60 474.80 L 744.60 468.30 L 729.80 462.10 L 714.40 456.20 L 699.20 450.80 L 683.30 445.70 L 666.60 441.00 L 649.20 436.50 L 631.00 432.40 L 613.10 428.80 L 594.40 425.70 L 574.90 422.90 L 554.50 420.50 L 533.20 418.60 L 512.50 417.20 L 490.80 416.30 L 468.20 415.80 L 444.60 415.90 L 420.00 416.50 L 396.10 417.60 L 371.30 419.20 L 345.40 421.50 L 318.30 424.30 L 290.20 427.90 L 246.50 435.70 L 218.50 440.20 L 171.90 446.60 L 140.80 449.70 L 126.50 450.60 L 112.70 451.10 L 100.70 451.10 L 93.00 450.70 L 86.50 449.90 L 81.20 449.00 L 77.20 447.90 L 74.10 446.60 L 71.80 445.20 L 68.90 442.30 L 66.00 438.40 L 62.90 432.40 L 61.70 428.80 L 60.10 418.90 L 59.70 413.50 L 59.70 408.30 L 60.20 403.50 L 61.20 398.60 L 62.60 393.90 L 64.40 389.40 L 66.70 385.10 L 69.30 381.00 L 75.70 373.20 L 79.50 369.40 L 68.90 373.60 L 59.10 377.90 L 50.00 382.50 L 43.30 386.20 L 37.10 390.20 L 26.30 398.30 L 21.30 402.80 L 16.90 407.50 L 13.00 412.30 L 9.70 417.30 L 6.70 422.50 L 4.40 428.00 L 2.60 433.60 L 1.40 439.60 L 0.70 449.20 L 0.90 454.40 L 1.60 459.80 L 4.90 476.00 L 9.80 490.10 L 11.70 494.10 L 13.80 497.80 L 16.30 501.10 L 19.00 504.20 L 22.90 507.80 L 27.20 510.90 L 31.90 513.80 L 37.10 516.30 L 48.20 520.20 L 60.80 523.00 L 69.50 524.20 L 78.60 524.90 L 88.30 525.20 L 107.70 524.70 L 132.80 522.40 L 147.60 520.30 L 162.20 517.70 L 189.30 512.10 L 221.30 503.90 L 239.50 498.50 L 268.20 493.40 L 295.80 489.00 L 322.30 485.30 L 347.80 482.20 L 372.30 479.70 L 397.60 477.70 L 421.90 476.20 L 445.30 475.40 L 467.70 475.00 L 489.20 475.10 L 511.30 475.80 L 532.60 476.90 L 552.90 478.50 L 572.40 480.60 L 591.10 483.00 L 610.30 486.00 L 628.60 489.40 L 646.20 493.10 L 663.10 497.20 L 679.20 501.60 L 695.60 506.50 L 711.20 511.80 L 726.20 517.30 L 740.60 523.10 L 754.30 529.20 L 768.10 535.70 L 781.30 542.50 L 794.00 549.50 L 806.10 556.70 L 817.60 564.00 L 829.10 571.90 L 840.00 579.80 L 850.50 587.90 L 860.50 596.10 L 870.00 604.50 L 881.70 615.40 L 892.60 626.40 L 902.90 637.50 L 912.60 648.80 L 921.90 660.40 L 930.60 672.00 L 938.80 683.60 L 946.30 695.20 L 960.40 718.90 L 972.30 742.00 L 979.50 757.70 L 985.90 772.80 L 991.50 787.50 L 996.70 802.40 L 1001.20 816.60 L 1005.00 830.00 L 1008.50 843.60 L 1013.80 867.80 L 1016.80 884.80 L 1018.80 899.00 L 1019.70 880.80 L 1020.10 863.00 L 1019.90 845.60 L 1019.20 828.60 L 1018.00 812.10 Z" fill="#6e6e96" fill-opacity="0.15" fill-rule="nonzero" group-id="1,3" id="Shape" node-id="15" stroke="none" target-height="529.6" target-width="1019.39996" target-x="0.7" target-y="369.4"></path></g><path d="M 424.40 442.80 L 425.00 450.60 L 426.00 457.00 L 427.60 463.90 L 430.30 472.70 L 432.40 478.60 L 438.70 492.30 L 442.60 499.20 L 447.30 506.50 L 453.00 514.40 L 462.40 525.70 L 468.10 531.60 L 480.80 543.30 L 487.90 549.00 L 495.70 554.80 L 504.40 560.70 L 513.10 566.00 L 522.70 571.40 L 533.20 576.80 L 544.70 582.10 L 556.00 586.90 L 568.40 591.50 L 581.90 596.10 L 596.60 600.50 L 610.90 604.40 L 626.50 608.00 L 643.30 611.50 L 661.50 614.60 L 672.20 614.70 L 677.00 614.30 L 685.50 612.80 L 691.80 610.60 L 694.70 609.00 L 697.10 607.10 L 699.10 604.90 L 700.20 603.10 L 701.00 600.90 L 701.40 598.50 L 701.50 595.80 L 701.10 593.10 L 698.80 586.50 L 696.60 582.30 L 693.40 577.20 L 688.70 571.00 L 672.70 553.00 L 664.40 543.20 L 642.40 515.20 L 628.40 498.50 L 620.80 490.60 L 615.60 485.50 L 603.70 475.60 L 597.30 471.00 L 590.20 466.30 L 582.30 461.70 L 574.20 457.40 L 565.00 453.10 L 554.70 448.70 L 532.50 440.60 L 519.30 436.40 L 494.40 429.70 L 484.60 427.50 L 466.30 424.60 L 459.40 424.00 L 452.50 423.70 L 446.90 423.90 L 442.40 424.40 L 437.90 425.30 L 434.50 426.40 L 429.40 429.20 L 426.30 432.30 L 424.90 434.90 L 424.20 437.30 L 424.00 439.60 L 424.40 442.80 Z" fill="#94cbeb" fill-rule="nonzero" group-id="1" id="Shape" node-id="16" stroke="none" target-height="191" target-width="277.5" target-x="424" target-y="423.7"></path><g node-id="63"><g node-id="69"><path d="M 682.30 563.70 L 672.50 552.80 L 664.00 542.60 L 634.40 505.40 L 627.00 497.10 L 619.20 489.00 L 628.80 503.00 L 632.50 509.10 L 635.00 514.30 L 637.10 519.70 L 638.30 524.10 L 638.80 527.70 L 638.60 531.40 L 638.00 534.40 L 636.90 536.90 L 635.30 539.10 L 633.50 541.00 L 631.30 542.60 L 627.70 544.30 L 623.80 545.60 L 616.10 546.70 L 607.80 546.60 L 594.00 543.50 L 581.10 540.10 L 569.20 536.50 L 558.10 532.70 L 547.00 528.40 L 536.60 523.90 L 527.10 519.30 L 518.30 514.60 L 509.60 509.40 L 501.50 504.10 L 494.10 498.80 L 480.70 487.80 L 469.00 476.40 L 464.00 470.80 L 457.60 462.90 L 452.10 455.30 L 447.30 447.80 L 442.90 440.10 L 439.20 432.80 L 436.10 425.90 L 433.10 427.00 L 429.00 429.50 L 426.20 432.50 L 424.50 436.20 L 424.00 440.10 L 425.00 450.60 L 426.00 457.00 L 427.60 463.90 L 430.30 472.70 L 435.20 485.10 L 438.70 492.30 L 442.60 499.20 L 447.30 506.50 L 453.00 514.40 L 457.40 519.90 L 468.10 531.60 L 474.40 537.60 L 480.80 543.30 L 487.90 549.00 L 495.70 554.80 L 504.40 560.70 L 513.10 566.00 L 522.70 571.40 L 533.20 576.80 L 544.70 582.10 L 556.00 586.90 L 568.40 591.60 L 581.90 596.10 L 596.60 600.50 L 610.90 604.40 L 626.50 608.00 L 643.30 611.50 L 661.50 614.60 L 672.20 614.70 L 677.00 614.30 L 685.50 612.80 L 691.80 610.60 L 694.70 609.00 L 697.10 607.10 L 699.10 604.90 L 700.20 603.10 L 701.00 600.90 L 701.40 598.50 L 701.50 595.80 L 700.30 590.00 L 698.80 586.50 L 696.60 582.30 L 693.40 577.20 L 688.70 571.00 L 682.30 563.70 Z" fill="#61a7d9" fill-opacity="0.36" fill-rule="nonzero" group-id="1,4,10" node-id="51" stroke="none" target-height="188.80002" target-width="277.5" target-x="424" target-y="425.9"></path></g></g><path d="M 1032.10 845.90 L 1016.90 847.30 L 1000.60 850.20 L 991.30 852.50 L 981.00 855.60 L 974.10 858.00 L 959.80 864.10 L 952.70 867.70 L 945.80 871.90 L 938.80 876.50 L 932.30 881.60 L 926.00 887.30 L 920.00 893.60 L 915.90 898.60 L 912.00 904.00 L 908.40 909.80 L 905.10 916.00 L 902.20 922.40 L 899.70 929.20 L 897.60 936.60 L 895.80 944.50 L 894.90 951.20 L 894.60 956.80 L 894.70 961.60 L 895.40 965.70 L 896.60 969.80 L 898.20 973.40 L 900.20 976.40 L 902.60 979.00 L 905.40 981.20 L 908.60 983.20 L 912.30 984.90 L 916.50 986.40 L 922.20 987.80 L 928.60 989.00 L 935.90 989.90 L 973.00 992.30 L 996.70 994.30 L 1016.80 997.40 L 1026.90 999.50 L 1037.20 1002.20 L 1047.70 1005.60 L 1055.40 1008.40 L 1063.10 1011.80 L 1070.90 1015.60 L 1078.80 1020.00 L 1086.30 1024.70 L 1093.80 1030.00 L 1101.40 1036.00 L 1109.00 1042.60 L 1116.00 1049.60 L 1123.10 1057.30 L 1130.10 1066.00 L 1141.10 1080.70 L 1144.60 1084.50 L 1147.80 1087.20 L 1150.70 1088.90 L 1153.40 1090.00 L 1155.80 1090.60 L 1158.10 1090.70 L 1160.40 1090.30 L 1162.50 1089.50 L 1165.00 1087.90 L 1167.40 1085.80 L 1169.80 1082.90 L 1172.10 1079.20 L 1175.80 1071.10 L 1178.90 1060.30 L 1180.50 1052.70 L 1181.70 1044.30 L 1182.50 1034.80 L 1182.90 1025.40 L 1182.80 1015.50 L 1182.30 1004.90 L 1181.30 994.40 L 1179.80 983.60 L 1177.80 972.50 L 1175.30 961.60 L 1172.20 950.70 L 1168.50 939.90 L 1165.40 931.90 L 1158.10 916.50 L 1153.90 909.10 L 1149.40 901.90 L 1144.50 895.00 L 1139.20 888.40 L 1133.50 882.20 L 1127.40 876.30 L 1121.00 870.90 L 1114.10 865.90 L 1106.70 861.30 L 1100.70 858.00 L 1094.30 855.10 L 1087.60 852.60 L 1080.50 850.30 L 1073.10 848.50 L 1065.80 847.10 L 1058.00 846.10 L 1049.90 845.60 L 1041.20 845.50 L 1032.10 845.90 Z" fill="#a3d9ff" fill-rule="nonzero" group-id="1" id="Shape" node-id="20" stroke="none" target-height="245.19995" target-width="288.30005" target-x="894.6" target-y="845.5"></path><g node-id="64"><g node-id="70"><path d="M 1117.00 867.90 L 1122.80 873.90 L 1128.10 880.10 L 1132.80 886.60 L 1137.10 893.40 L 1140.80 900.30 L 1143.90 907.20 L 1146.50 914.40 L 1148.50 921.30 L 1149.90 928.10 L 1150.80 935.00 L 1151.00 941.40 L 1150.70 947.40 L 1150.00 952.00 L 1148.90 956.10 L 1147.50 959.90 L 1145.90 963.40 L 1143.70 966.70 L 1141.30 969.60 L 1138.50 972.20 L 1135.30 974.30 L 1131.80 976.00 L 1128.00 977.30 L 1123.60 978.10 L 1118.60 978.40 L 1109.10 977.90 L 1099.70 976.10 L 1095.00 974.60 L 1090.20 972.50 L 1085.70 970.10 L 1081.00 966.80 L 1076.20 962.80 L 1073.90 960.20 L 1068.90 952.30 L 1059.00 932.90 L 1054.20 924.60 L 1051.90 921.70 L 1050.20 920.20 L 1048.60 919.30 L 1047.10 918.90 L 1044.30 919.00 L 1041.40 919.60 L 1038.60 920.80 L 1033.10 924.20 L 1026.20 930.40 L 1010.40 947.70 L 1006.70 951.20 L 1001.70 955.00 L 999.40 956.20 L 992.60 959.00 L 986.40 961.00 L 980.70 962.30 L 975.60 963.00 L 970.90 963.20 L 966.80 963.00 L 963.00 962.30 L 959.70 961.20 L 956.60 959.70 L 953.90 957.80 L 951.40 955.40 L 949.30 952.90 L 947.50 949.90 L 945.90 946.40 L 944.70 942.30 L 943.70 937.50 L 943.10 932.00 L 943.00 925.70 L 943.40 919.80 L 944.20 914.20 L 945.40 909.00 L 947.00 903.80 L 949.00 899.00 L 951.20 894.40 L 953.80 890.10 L 957.60 884.70 L 961.80 879.70 L 966.20 875.20 L 975.70 867.10 L 980.50 863.70 L 987.90 859.20 L 994.60 855.60 L 1006.40 850.30 L 1013.80 847.80 L 997.20 851.00 L 987.90 853.40 L 977.70 856.60 L 971.00 859.10 L 957.10 865.40 L 950.30 869.10 L 943.60 873.20 L 937.00 877.90 L 930.70 882.90 L 924.70 888.60 L 918.90 894.80 L 915.00 899.70 L 911.30 905.00 L 907.90 910.70 L 904.70 916.80 L 901.90 923.00 L 899.50 929.60 L 897.50 936.80 L 895.80 944.50 L 894.90 951.10 L 894.60 956.80 L 894.70 961.60 L 895.40 965.70 L 896.60 969.80 L 898.20 973.30 L 900.20 976.40 L 902.60 979.00 L 905.40 981.20 L 908.60 983.20 L 912.30 984.90 L 916.50 986.40 L 922.20 987.80 L 928.60 989.00 L 947.10 990.80 L 987.20 993.30 L 1006.60 995.60 L 1016.80 997.30 L 1026.90 999.50 L 1037.20 1002.20 L 1047.70 1005.50 L 1055.40 1008.40 L 1063.10 1011.80 L 1070.90 1015.60 L 1078.80 1019.90 L 1086.30 1024.60 L 1093.80 1030.00 L 1101.40 1035.90 L 1109.00 1042.60 L 1116.00 1049.60 L 1123.10 1057.30 L 1130.10 1066.00 L 1140.90 1080.50 L 1144.40 1084.20 L 1147.50 1086.90 L 1150.30 1088.70 L 1152.90 1089.90 L 1155.30 1090.50 L 1157.60 1090.70 L 1159.70 1090.40 L 1161.80 1089.80 L 1164.20 1088.50 L 1166.60 1086.60 L 1169.00 1084.00 L 1171.30 1080.60 L 1173.20 1077.20 L 1176.60 1068.50 L 1178.20 1063.20 L 1179.80 1056.10 L 1181.20 1048.20 L 1182.20 1039.30 L 1182.70 1030.50 L 1182.90 1021.00 L 1182.60 1011.00 L 1182.00 1000.90 L 1180.80 990.60 L 1179.20 980.00 L 1177.10 969.50 L 1174.50 958.90 L 1171.40 948.30 L 1167.70 937.90 L 1163.50 927.70 L 1158.70 917.80 L 1154.70 910.50 L 1150.40 903.60 L 1145.80 896.80 L 1140.70 890.40 L 1135.40 884.20 L 1129.60 878.40 L 1123.50 873.00 L 1117.00 867.90 Z" fill="#61a7d9" fill-opacity="0.36" fill-rule="nonzero" group-id="1,5,11" node-id="58" stroke="none" target-height="242.89996" target-width="288.30005" target-x="894.6" target-y="847.8"></path></g></g><path d="M 252.10 215.40 L 251.80 219.40 L 251.10 223.20 L 249.80 226.80 L 248.10 230.20 L 246.00 233.30 L 243.50 236.10 L 240.70 238.60 L 237.60 240.70 L 234.20 242.40 L 230.60 243.60 L 226.80 244.40 L 222.80 244.70 L 218.80 244.40 L 215.00 243.60 L 211.40 242.40 L 208.00 240.70 L 204.90 238.60 L 202.10 236.10 L 199.60 233.30 L 197.50 230.20 L 195.80 226.80 L 194.60 223.20 L 193.80 219.40 L 193.50 215.40 L 193.80 211.40 L 194.60 207.60 L 195.80 204.00 L 197.50 200.60 L 199.60 197.50 L 202.10 194.70 L 204.90 192.20 L 208.00 190.10 L 211.40 188.40 L 215.00 187.10 L 218.80 186.40 L 222.80 186.10 L 226.80 186.40 L 230.60 187.10 L 234.20 188.40 L 237.60 190.10 L 240.70 192.20 L 243.50 194.70 L 246.00 197.50 L 248.10 200.60 L 249.80 204.00 L 251.10 207.60 L 251.80 211.40 L 252.10 215.40 Z" fill="#6e6e96" fill-rule="nonzero" group-id="1" id="Oval" node-id="24" stroke="none" target-height="58.59999" target-width="58.600006" target-x="193.5" target-y="186.1"></path><path d="M 671.20 857.30 L 674.20 862.70 L 676.30 867.40 L 677.60 871.40 L 678.40 875.60 L 678.70 879.20 L 678.40 882.30 L 677.50 885.40 L 676.30 888.10 L 674.60 890.50 L 672.60 892.70 L 667.60 896.50 L 662.00 899.20 L 659.10 900.00 L 656.20 900.30 L 653.20 900.20 L 650.10 899.50 L 647.20 898.40 L 644.10 896.50 L 640.80 893.80 L 637.80 890.80 L 634.60 886.80 L 631.20 881.60 L 627.50 875.00 L 623.90 867.40 L 620.80 859.60 L 618.20 851.60 L 615.70 841.20 L 614.50 831.70 L 614.50 827.60 L 615.00 824.20 L 615.60 821.60 L 616.60 819.60 L 617.80 818.10 L 619.20 816.90 L 620.90 816.20 L 622.80 815.80 L 625.00 815.90 L 627.60 816.50 L 630.80 817.70 L 634.50 819.60 L 642.40 825.00 L 650.50 832.00 L 656.30 838.00 L 661.90 844.30 L 666.90 851.00 L 671.20 857.30 Z" fill="#61a7d9" fill-rule="nonzero" group-id="1" id="Shape" node-id="25" stroke="none" target-height="84.5" target-width="64.20001" target-x="614.5" target-y="815.8"></path><g node-id="65"><path d="M 776.40 707.30 L 778.70 711.60 L 780.10 715.10 L 780.90 717.90 L 781.20 720.70 L 780.90 723.10 L 780.30 725.00 L 777.80 728.20 L 776.00 729.40 L 774.10 730.40 L 772.10 731.00 L 770.10 731.20 L 768.10 730.90 L 765.90 730.00 L 763.50 728.50 L 761.30 726.50 L 758.90 723.60 L 756.20 719.60 L 754.00 715.70 L 749.80 706.60 L 746.80 697.40 L 745.30 689.30 L 745.40 686.30 L 745.80 684.50 L 746.40 683.20 L 747.30 682.30 L 748.50 681.90 L 749.90 681.90 L 751.80 682.40 L 754.50 683.80 L 761.00 688.80 L 767.80 695.70 L 773.90 703.50 L 776.40 707.30 Z" fill="#61a7d9" fill-opacity="0.51" fill-rule="nonzero" group-id="1,6" id="Shape" node-id="27" stroke="none" target-height="49.299988" target-width="35.900024" target-x="745.3" target-y="681.9"></path></g><g node-id="66"><path d="M 1110.50 205.50 L 1113.10 207.40 L 1115.10 209.40 L 1116.50 211.30 L 1117.50 213.20 L 1118.30 216.10 L 1118.40 219.00 L 1117.90 222.00 L 1115.50 228.10 L 1113.60 231.20 L 1111.50 234.30 L 1107.00 239.00 L 1104.40 240.70 L 1101.70 241.70 L 1098.80 242.20 L 1096.70 242.10 L 1094.30 241.60 L 1091.70 240.60 L 1088.90 239.00 L 1083.50 234.80 L 1080.80 232.00 L 1078.40 229.00 L 1074.30 222.70 L 1072.70 219.30 L 1071.60 216.10 L 1071.00 213.00 L 1071.00 208.50 L 1072.50 204.70 L 1075.30 201.90 L 1079.40 200.00 L 1082.50 199.30 L 1085.90 198.90 L 1089.60 199.00 L 1097.00 200.10 L 1100.80 201.10 L 1104.40 202.40 L 1110.50 205.50 Z" fill="#61a7d9" fill-opacity="0.31" fill-rule="nonzero" group-id="1,7" id="Shape" node-id="29" stroke="none" target-height="43.300003" target-width="47.400024" target-x="1071" target-y="198.9"></path></g><g node-id="67"><path d="M 1194.00 477.50 L 1196.30 481.80 L 1197.70 485.20 L 1198.50 488.00 L 1198.80 490.90 L 1198.50 493.20 L 1197.90 495.10 L 1196.80 496.90 L 1195.30 498.40 L 1193.60 499.60 L 1191.70 500.60 L 1189.70 501.20 L 1187.70 501.30 L 1185.70 501.10 L 1183.50 500.20 L 1181.10 498.60 L 1178.90 496.70 L 1176.50 493.80 L 1173.80 489.80 L 1171.60 485.80 L 1167.40 476.80 L 1164.40 467.60 L 1162.90 459.50 L 1163.00 456.50 L 1163.40 454.60 L 1164.00 453.30 L 1164.90 452.50 L 1166.10 452.10 L 1167.50 452.10 L 1169.30 452.60 L 1172.10 453.90 L 1175.30 456.20 L 1178.60 458.90 L 1185.40 465.90 L 1191.50 473.70 L 1194.00 477.50 Z" fill="#61a7d9" fill-opacity="0.51" fill-rule="nonzero" group-id="1,8" id="Shape" node-id="31" stroke="none" target-height="49.19998" target-width="35.900024" target-x="1162.9" target-y="452.1"></path></g><path d="M 446.30 646.70 L 447.90 649.80 L 449.60 655.00 L 449.80 657.10 L 449.60 660.00 L 448.80 662.60 L 447.40 665.00 L 443.40 669.00 L 440.80 670.80 L 438.00 672.30 L 432.60 674.00 L 429.90 674.20 L 427.20 673.70 L 424.50 672.60 L 422.70 671.40 L 418.90 667.50 L 416.90 664.60 L 414.90 660.90 L 411.50 652.00 L 409.50 642.80 L 409.20 638.50 L 409.60 633.20 L 411.10 629.00 L 412.20 627.40 L 413.70 626.30 L 415.40 625.50 L 417.30 625.20 L 421.70 625.80 L 426.60 627.90 L 430.20 630.20 L 437.60 636.10 L 443.90 643.20 L 446.30 646.70 Z" fill="#61a7d9" fill-opacity="0.51" fill-rule="nonzero" group-id="1,9" id="Shape" node-id="33" stroke="none" target-height="49" target-width="40.599976" target-x="409.2" target-y="625.2"></path></g></svg>