<svg width="69" height="37" viewBox="0 0 69 37" fill="none" xmlns="http://www.w3.org/2000/svg">
<path d="M34.5 37C25.4243 37 16.8459 35.1752 10.3811 31.7772C3.66757 28.3163 0 23.5969 0 18.5C0 13.4031 3.66757 8.68367 10.3811 5.22279C16.8459 1.82483 25.4243 0 34.5 0C43.5757 0 52.1541 1.82483 58.6189 5.22279C65.3324 8.68367 69 13.466 69 18.5629C69 23.6599 65.3324 28.3163 58.6189 31.8401C52.1541 35.1752 43.5757 37 34.5 37ZM34.5 2.45408C25.7973 2.45408 17.6541 4.21599 11.5 7.36224C5.65676 10.4456 2.42432 14.4099 2.42432 18.5C2.42432 22.5901 5.65676 26.5544 11.5 29.6378C17.5919 32.784 25.7973 34.5459 34.5 34.5459C43.2027 34.5459 51.3459 32.784 57.5 29.6378C63.3432 26.6173 66.5757 22.6531 66.5757 18.5C66.5757 14.3469 63.3432 10.4456 57.5 7.36224C51.3459 4.21599 43.2027 2.45408 34.5 2.45408Z" fill="black"/>
<path d="M22.737 27C20.661 27 19.0441 26.6197 17.8864 25.8592C16.7286 25.0986 16.0998 24.0254 16 22.6394H18.3056C18.3654 23.7211 18.7747 24.5408 19.5332 25.0986C20.3117 25.6563 21.3896 25.9352 22.767 25.9352C24.2441 25.9352 25.362 25.5972 26.1205 24.9211C26.899 24.2282 27.2882 23.2225 27.2882 21.9042V9H29.7435V21.3718C29.7435 23.1972 29.1447 24.5915 27.947 25.5549C26.7493 26.5183 25.0126 27 22.737 27Z" fill="black"/>
<path d="M41.1429 19.0901L32.1302 9H34.825L42.7298 17.8225L51.2634 9H53L43.5981 18.7099V26.7465H41.1429V19.0901Z" fill="black"/>
</svg>
